<svg viewBox="0 0 48 20" fill="none" xmlns="http://www.w3.org/2000/svg">
  <path d="M8.977 3.819c.562-.692 1.003-1.658.89-2.619-.862.035-1.914.574-2.534 1.297-.532.622-1.002 1.626-.875 2.584.925.072 1.866-.471 2.519-1.262z" fill="currentColor"/>
  <path d="M11.46 7.063c-1.405 0-2.006.671-2.987.671-.999 0-1.755-.665-2.967-.665-1.565 0-3.192 1.277-3.192 3.686 0 2.371 1.86 5.032 3.381 5.032 1.062 0 1.461-.696 2.756-.696 1.278 0 1.541.69 2.95.69 1.216 0 2.121-1.412 2.916-2.804.895-1.583 1.192-3.129 1.207-3.204-.08-.023-2.332-.923-2.332-3.453 0-2.112 1.694-3.032 1.774-3.083-.965-1.431-2.469-1.585-3.006-1.606-.001.001-1.095-.107-2.5.432z" fill="currentColor"/>
  <path d="M19.548 4.068h2.527c1.3 0 2.204.705 2.204 1.733 0 1.027-.904 1.733-2.204 1.733h-1.41v2.187h-1.117V4.068zm1.117 2.755h1.185c.84 0 1.314-.437 1.314-1.022 0-.586-.474-1.022-1.314-1.022h-1.185v2.044zm6.527.866c0 1.02-.772 1.671-1.95 1.671-.745 0-1.35-.316-1.65-.847l.923-.532c.172.294.496.493.788.493.511 0 .826-.257.826-.71v-.383c-.248.232-.623.383-1.092.383-.904 0-1.643-.678-1.643-1.529 0-.852.739-1.53 1.643-1.53.469 0 .844.152 1.092.384v-.316h1.063v2.916zm-1.063-1.155c0-.453-.373-.786-.88-.786s-.88.333-.88.786c0 .452.373.786.88.786s.88-.334.88-.786zm2.01 2.186l1.555-3.98h1.1l-2.076 5.062c-.382.93-.964 1.266-1.828 1.266-.172 0-.447-.024-.61-.064v-.898c.158.04.344.056.474.056.344 0 .548-.128.683-.472l.084-.208-1.966-4.742h1.125l1.459 3.98z" fill="currentColor"/>
</svg>