<svg viewBox="0 0 48 13" fill="none" xmlns="http://www.w3.org/2000/svg">
  <path d="M6.102 1.5H3.278c-.197 0-.365.143-.396.337L1.502 10.96c-.023.147.09.28.238.28h1.381c.197 0 .365-.144.396-.338l.359-2.278c.031-.194.199-.337.396-.337h.914c1.902 0 3-.92 3.287-2.744.13-.796.005-1.422-.37-1.861-.412-.482-1.142-.731-2.11-.731l.009-.001zm.335 2.709c-.158.983-.738 1.043-1.333 1.043h-.339l.238-1.507c.014-.09.091-.156.183-.156h.154c.402 0 .782 0 .978.229.118.137.153.34.119.591z" fill="#003087"/>
  <path d="M14.848 4.176h-1.385c-.092 0-.169.067-.183.157l-.047.298-.074-.107c-.23-.334-.743-.446-1.255-.446-1.174 0-2.177.889-2.371 2.135-.101.622.043 1.217.394 1.632.323.382.784.541 1.333.541.943 0 1.466-.606 1.466-.606l-.048.296c-.023.148.09.281.238.281h1.248c.197 0 .365-.143.396-.337l.747-4.729c-.023-.147-.09-.28-.238-.28l-.221-.035zm-1.923 2.698c-.102.604-.589 1.01-1.211 1.01-.311 0-.56-.1-.72-.29-.158-.188-.218-.456-.167-.755.095-.598.59-.997 1.201-.997.305 0 .553.101.716.293.165.194.23.465.181.739z" fill="#003087"/>
  <path d="M21.402 4.176h-1.393c-.104 0-.201.051-.26.137l-1.502 2.212-.637-2.126c-.04-.132-.16-.223-.3-.223h-1.368c-.166 0-.284.164-.229.318l1.202 3.529-1.13 1.595c-.114.16.002.381.199.381h1.392c.103 0 .2-.05.259-.135l3.62-5.226c.112-.162-.003-.384-.2-.384l.347-.078z" fill="#003087"/>
  <path d="M28.102 1.5h-2.824c-.197 0-.365.143-.396.337l-1.38 8.123c-.023.147.09.28.238.28h1.448c.138 0 .255-.1.276-.236l.378-2.379c.031-.194.199-.337.396-.337h.914c1.902 0 3-.92 3.287-2.744.13-.796.005-1.422-.37-1.861-.412-.482-1.142-.731-2.11-.731l.143-.452zm.335 2.709c-.158.983-.738 1.043-1.333 1.043h-.339l.238-1.507c.014-.09.091-.156.183-.156h.154c.402 0 .782 0 .978.229.118.137.153.34.119.591z" fill="#009CDE"/>
  <path d="M36.848 4.176h-1.385c-.092 0-.169.067-.183.157l-.047.298-.074-.107c-.23-.334-.743-.446-1.255-.446-1.174 0-2.177.889-2.371 2.135-.101.622.043 1.217.394 1.632.323.382.784.541 1.333.541.943 0 1.466-.606 1.466-.606l-.048.296c-.023.148.09.281.238.281h1.248c.197 0 .365-.143.396-.337l.747-4.729c-.023-.147-.09-.28-.238-.28l-.221-.035zm-1.923 2.698c-.102.604-.589 1.01-1.211 1.01-.311 0-.56-.1-.72-.29-.158-.188-.218-.456-.167-.755.095-.598.59-.997 1.201-.997.305 0 .553.101.716.293.165.194.23.465.181.739z" fill="#009CDE"/>
  <path d="M39.93 1.698l-1.401 8.522c-.023.148.09.281.238.281h1.191c.197 0 .365-.143.396-.337l1.38-8.124c.023-.147-.09-.28-.238-.28h-1.328c-.092 0-.169.067-.183.157l-.055.781z" fill="#009CDE"/>
</svg>