<svg viewBox="0 0 48 16" fill="none" xmlns="http://www.w3.org/2000/svg">
  <path d="M20.756 1.394l-5.906 13.211h-3.82L8.15 4.22c-.167-.647-.312-.885-.82-1.159C6.645 2.687 5.447 2.341 4.4 2.09l.073-.333h6.276c.8 0 1.52.533 1.702 1.454l1.555 8.26 3.84-9.714h3.91l.01-.363zM36.01 10.552c.015-3.494-4.833-3.688-4.8-5.248.01-.474.463-.98 1.453-1.108.49-.064 1.843-.113 3.378.593l.601-2.807c-.825-.3-1.887-.588-3.208-.588-3.384 0-5.763 1.8-5.785 4.377-.022 1.905 1.7 2.968 2.997 3.602 1.332.65 1.78 1.066 1.774 1.647-.009.89-1.066 1.283-2.053 1.298-1.724.028-2.726-.465-3.524-.838l-.622 2.903c.801.368 2.282.688 3.817.705 3.599 0 5.954-1.778 5.972-4.536zM45.804 14.605h3.376L46.598 1.394h-3.116c-.7 0-1.291.406-1.552 1.031l-5.473 12.18h3.597l.715-1.977h4.392l.414 1.977h.23zm-3.827-4.689l1.8-4.96 1.036 4.96h-2.836zm-9.394-8.522l-2.83 13.211h-3.422l2.829-13.211h3.423z" fill="#1434CB"/>
</svg>